<svg xmlns="http://www.w3.org/2000/svg" version="1.1" xmlns:xlink="http://www.w3.org/1999/xlink" xmlns:svgjs="http://svgjs.dev/svgjs" width="1500" height="1500" viewBox="0 0 1500 1500"><rect width="1500" height="1500" fill="#ffffff"></rect><g transform="matrix(0.6666666666666666,0,0,0.6666666666666666,249.39393939393938,643.4770000699527)"><svg viewBox="0 0 396 84" data-background-color="#ffffff" preserveAspectRatio="xMidYMid meet" height="318" width="1500" xmlns="http://www.w3.org/2000/svg" xmlns:xlink="http://www.w3.org/1999/xlink"><g id="tight-bounds" transform="matrix(1,0,0,1,0.2400000000000091,0.20722638737720445)"><svg viewBox="0 0 395.52 83.58554722524559" height="83.58554722524559" width="395.52"><g><svg viewBox="0 0 606.0230729707969 128.07132429558303" height="83.58554722524559" width="395.52"><g transform="matrix(1,0,0,1,0,17.7001613172622)"><svg viewBox="0 0 395.52 92.67100166105863" height="92.67100166105863" width="395.52"><g id="textblocktransform"><svg viewBox="0 0 395.52 92.67100166105863" height="92.67100166105863" width="395.52" id="textblock"><g><svg viewBox="0 0 395.52 63.12319684262456" height="63.12319684262456" width="395.52"><g transform="matrix(1,0,0,1,0,0)"><svg width="395.52" viewBox="3 -31.35 202.69 32.35" height="63.12319684262456" data-palette-color="#0e0e0e"><path d="M11.65-29.2L9.65-28.95 9.05-20.35 9.05-17.65 24.45-17.65 24.45-20.4 23.85-28.95 21.85-29.2 21.9-30.25 30.45-30.25 30.5-29.3 29-28.95 28.4-20.35 28.4-9.85 29-1.3 30.5-0.95 30.45 0 21.9 0 21.85-1.05 23.85-1.3 24.45-9.9 24.45-14.3 9.05-14.3 9.05-9.85 9.65-1.3 11.65-1.05 11.6 0 3.05 0 3-0.95 4.5-1.3 5.1-9.9 5.1-20.4 4.5-28.95 3-29.3 3.05-30.25 11.6-30.25 11.65-29.2ZM36.5-1L38-1.35 38.6-9.9 38.6-20.4 38-28.9 36.5-29.25 36.55-30.2Q45-30.4 46.55-30.4L46.55-30.4Q56.85-30.4 56.85-22.35L56.85-22.35Q56.85-17.7 52.8-15.7L52.8-15.7Q58.1-13.55 58.1-8.43 58.1-3.3 54.95-1.55 51.8 0.2 44.95 0.2L44.95 0.2Q41.7 0.2 36.55-0.05L36.55-0.05 36.5-1ZM42.55-14.1L42.55-9.85 43-3.15Q45.2-2.85 46.65-2.85L46.65-2.85Q53.45-2.85 53.45-8.55L53.45-8.55Q53.45-11.6 51.7-12.93 49.95-14.25 45.9-14.25L45.9-14.25Q45.6-14.25 42.55-14.1L42.55-14.1ZM43-27.1L42.55-20.35 42.55-17Q44.15-16.85 45.5-16.85L45.5-16.85Q49.15-16.85 50.7-18.15L50.7-18.15Q52.2-19.4 52.2-22.15L52.2-22.15Q52.2-27.4 46.15-27.4L46.15-27.4Q44.9-27.4 43-27.1L43-27.1ZM76.65-27.7Q72.55-27.7 70.34-24.48 68.15-21.25 68.15-15.28 68.15-9.3 70.47-5.93 72.8-2.55 76.77-2.55 80.75-2.55 85.25-5.15L85.25-5.15 86.09-7.15 87-6.95 85.25 1 84.25 1 84.3-0.25Q80.95 0.75 76.8 0.75L76.8 0.75Q70.45 0.75 66.9-3.3 63.35-7.35 63.35-14.78 63.35-22.2 67.2-26.6 71.05-31 77.65-31L77.65-31Q80.95-31 84.65-29.75L84.65-29.75 85-31 85.95-31 85.59-23.3 84.65-23.3 84.3-25.4Q79.9-27.7 76.65-27.7L76.65-27.7ZM99.89-29.2L97.89-28.95 97.29-20.35 97.29-14.85Q97.29-8.25 98.92-5.4 100.54-2.55 104.42-2.55 108.29-2.55 110.04-5.05 111.79-7.55 111.79-13.2L111.79-13.2 111.79-20.4 111.24-28.95 109.24-29.2 109.29-30.25 117.79-30.25 117.84-29.3 116.34-28.95 115.74-20.35 115.74-13.75Q115.74 0.75 103.99 0.75L103.99 0.75Q93.34 0.75 93.34-13.15L93.34-13.15 93.34-20.4 92.74-28.95 91.24-29.3 91.29-30.25 99.84-30.25 99.89-29.2ZM131.49-29.2L129.49-28.95 128.89-20.35 128.89-14.85Q128.89-8.25 130.52-5.4 132.14-2.55 136.02-2.55 139.89-2.55 141.64-5.05 143.39-7.55 143.39-13.2L143.39-13.2 143.39-20.4 142.84-28.95 140.84-29.2 140.89-30.25 149.39-30.25 149.44-29.3 147.94-28.95 147.34-20.35 147.34-13.75Q147.34 0.75 135.59 0.75L135.59 0.75Q124.94 0.75 124.94-13.15L124.94-13.15 124.94-20.4 124.34-28.95 122.84-29.3 122.89-30.25 131.44-30.25 131.49-29.2ZM156.64-7.35L157.54-7.1 157.29-4.8Q161.19-2.55 164.24-2.55 167.29-2.55 169.04-3.8 170.79-5.05 170.79-7.08 170.79-9.1 169.64-10.53 168.49-11.95 166.74-12.7 164.99-13.45 162.96-14.38 160.94-15.3 159.19-16.18 157.44-17.05 156.29-18.75 155.14-20.45 155.14-22.8L155.14-22.8Q155.14-26.45 158.16-28.73 161.19-31 165.99-31L165.99-31Q168.94-31 172.04-30.05L172.04-30.05 172.39-31.35 173.34-31.35 172.94-22.9 171.99-22.9 171.64-25.05Q167.39-27.85 164.19-27.85L164.19-27.85Q161.99-27.85 160.79-26.88 159.59-25.9 159.59-23.95 159.59-22 161.14-20.6 162.69-19.2 164.91-18.35 167.14-17.5 169.36-16.53 171.59-15.55 173.14-13.63 174.69-11.7 174.69-8.8L174.69-8.8Q174.69-4.4 171.44-1.83 168.19 0.75 162.74 0.75L162.74 0.75Q159.54 0.75 155.54-0.4L155.54-0.4 154.84 0.7 153.94 0.4 156.64-7.35ZM198.84-1.3L197.59-7.55 196.63-10.2 185.24-10.2 184.24-7.55 182.74-1.3 184.88-1.05 184.84 0 176.49 0 176.44-0.95 177.94-1.3 189.24-28.95 187.34-29.3 187.38-30.25 195.59-30.25 195.63-29.3 193.74-28.95 204.19-1.3 205.69-0.95 205.63 0 196.74 0 196.69-1.05 198.84-1.3ZM195.44-13.55L191.19-25.35 186.53-13.55 195.44-13.55Z" opacity="1" transform="matrix(1,0,0,1,0,0)" fill="#0e0e0e" class="wordmark-text-0" data-fill-palette-color="primary" id="text-0"></path></svg></g></svg></g><g transform="matrix(1,0,0,1,117.46944000000002,78.02506866044399)"><svg viewBox="0 0 278.05055999999996 14.645933000614628" height="14.645933000614628" width="278.05055999999996"><g transform="matrix(1,0,0,1,0,0)"><svg width="278.05055999999996" viewBox="2.45 -33.5 813.42 42.850000000000016" height="14.645933000614628" data-palette-color="#0183e6"><path d="M22-11.35L5.2-9 5-12.15 20.1-14.2Q19.9-16.95 18.2-18.73 16.5-20.5 13.5-20.5L13.5-20.5Q10.4-20.5 8.38-18.28 6.35-16.05 6.35-11.9L6.35-11.9 6.35-10.8Q6.7-6.8 8.97-4.73 11.25-2.65 15.2-2.65L15.2-2.65Q17.3-2.65 19-3.35 20.7-4.05 21.7-4.85L21.7-4.85Q22.25-4.5 22.58-4.03 22.9-3.55 22.9-2.95L22.9-2.95Q22.9-2 21.83-1.18 20.75-0.35 18.98 0.15 17.2 0.65 15 0.65L15 0.65Q11.15 0.65 8.33-0.75 5.5-2.15 3.98-4.93 2.45-7.7 2.45-11.7L2.45-11.7Q2.45-14.55 3.28-16.78 4.1-19 5.58-20.55 7.05-22.1 9.1-22.93 11.15-23.75 13.55-23.75L13.55-23.75Q16.6-23.75 18.93-22.45 21.25-21.15 22.58-18.82 23.9-16.5 23.9-13.5L23.9-13.5Q23.9-12.4 23.4-11.93 22.9-11.45 22-11.35L22-11.35ZM48.35-16L48.35-16 48.35-10.25 44.35-10.25 44.35-15.7Q44.35-18.15 42.92-19.3 41.5-20.45 39.15-20.45L39.15-20.45Q37.6-20.45 36.15-19.95 34.7-19.45 33.7-18.8L33.7-18.8 33.7-10.25 29.7-10.25 29.7-18.6Q29.7-19.6 30.12-20.3 30.55-21 31.6-21.65L31.6-21.65Q32.95-22.5 35.02-23.13 37.1-23.75 39.2-23.75L39.2-23.75Q41.75-23.75 43.7-22.98 45.65-22.2 46.6-20.85L46.6-20.85Q46.9-20.55 47.1-20.3 47.3-20.05 47.5-19.65L47.5-19.65Q47.85-19.05 48.1-18.1 48.35-17.15 48.35-16ZM63-15.9L63-15.9 63-10.25 59-10.25 59-15.7Q59-18.15 57.6-19.3 56.2-20.45 53.85-20.45L53.85-20.45Q52.1-20.45 50.47-19.73 48.85-19 47.55-17.65L47.55-17.65 45.95-20.55Q47.25-21.85 49.35-22.8 51.45-23.75 54.15-23.75L54.15-23.75Q56.85-23.75 58.82-22.9 60.8-22.05 61.9-20.3 63-18.55 63-15.9ZM29.7-1.55L29.7-12.9 33.7-12.9 33.7-0.1Q33.45 0 32.95 0.13 32.45 0.25 31.85 0.25L31.85 0.25Q30.8 0.25 30.25-0.18 29.7-0.6 29.7-1.55L29.7-1.55ZM44.35-1.55L44.35-12.9 48.35-12.9 48.35-0.1Q48.1 0 47.57 0.13 47.05 0.25 46.5 0.25L46.5 0.25Q45.4 0.25 44.87-0.18 44.35-0.6 44.35-1.55L44.35-1.55ZM59-1.55L59-12.9 63-12.9 63-0.1Q62.75 0 62.22 0.13 61.7 0.25 61.15 0.25L61.15 0.25Q60.05 0.25 59.52-0.18 59-0.6 59-1.55L59-1.55ZM80.34 0.65L80.34 0.65Q78.2 0.65 76.32 0.03 74.45-0.6 73.59-1.35L73.59-1.35 73.59-5.05Q74.59-4.1 76.12-3.38 77.65-2.65 79.8-2.65L79.8-2.65Q83.3-2.65 85.42-4.78 87.55-6.9 87.55-11.6L87.55-11.6Q87.55-14.9 86.47-16.82 85.4-18.75 83.62-19.6 81.84-20.45 79.8-20.45L79.8-20.45Q78-20.45 76.75-20 75.5-19.55 74.5-19L74.5-19 74.5-2.4 70.5-2.4 70.5-18.9Q70.5-19.9 70.84-20.5 71.2-21.1 72.3-21.75L72.3-21.75Q73.65-22.5 75.52-23.13 77.4-23.75 79.8-23.75L79.8-23.75Q83.09-23.75 85.77-22.48 88.45-21.2 90.02-18.53 91.59-15.85 91.59-11.6L91.59-11.6Q91.59-7.5 90.17-4.78 88.75-2.05 86.2-0.7 83.65 0.65 80.34 0.65ZM72.65 9.35L72.65 9.35Q71.59 9.35 71.05 8.9 70.5 8.45 70.5 7.5L70.5 7.5 70.5-3.85 74.5-3.75 74.5 9Q74.25 9.1 73.75 9.22 73.25 9.35 72.65 9.35ZM119.24-11.55L119.24-11.55Q119.24-7.85 117.84-5.1 116.44-2.35 113.89-0.85 111.34 0.65 107.89 0.65L107.89 0.65Q104.44 0.65 101.87-0.85 99.29-2.35 97.89-5.1 96.49-7.85 96.49-11.55L96.49-11.55Q96.49-15.3 97.92-18.03 99.34-20.75 101.92-22.25 104.49-23.75 107.89-23.75L107.89-23.75Q111.29-23.75 113.84-22.25 116.39-20.75 117.82-18.03 119.24-15.3 119.24-11.55ZM107.89-20.45L107.89-20.45Q104.54-20.45 102.57-18.07 100.59-15.7 100.59-11.55L100.59-11.55Q100.59-7.35 102.52-5 104.44-2.65 107.89-2.65L107.89-2.65Q111.29-2.65 113.22-5.03 115.14-7.4 115.14-11.55L115.14-11.55Q115.14-15.7 113.22-18.07 111.29-20.45 107.89-20.45ZM139.99-17.2L139.99-17.2Q139.09-14.05 138.06-10.9 137.04-7.75 136.09-5 135.14-2.25 134.34-0.25L134.34-0.25Q133.94 0 133.44 0.15 132.94 0.3 132.09 0.3L132.09 0.3Q131.29 0.3 130.62 0.03 129.94-0.25 129.69-0.85L129.69-0.85Q129.19-1.85 128.56-3.75 127.94-5.65 127.27-8.1 126.59-10.55 125.89-13.18 125.19-15.8 124.62-18.25 124.04-20.7 123.64-22.6L123.64-22.6Q123.99-22.95 124.52-23.25 125.04-23.55 125.79-23.55L125.79-23.55Q126.74-23.55 127.22-23.03 127.69-22.5 127.89-21.35L127.89-21.35Q128.34-19.25 128.92-16.6 129.49-13.95 130.12-11.35 130.74-8.75 131.27-6.68 131.79-4.6 132.04-3.6L132.04-3.6 132.24-3.6Q132.64-4.8 133.49-7.53 134.34-10.25 135.52-13.75 136.69-17.25 137.89-20.85L137.89-20.85Q138.29-21.1 138.84-21.23 139.39-21.35 140.04-21.35L140.04-21.35Q140.94-21.35 141.54-21.03 142.14-20.7 142.34-20.05L142.34-20.05Q143.54-16.6 144.59-13.28 145.64-9.95 146.44-7.38 147.24-4.8 147.59-3.55L147.59-3.55 147.84-3.55Q148.99-8 150.34-13.1 151.69-18.2 152.54-23.1L152.54-23.1Q153.24-23.55 154.24-23.55L154.24-23.55Q155.09-23.55 155.59-23.15 156.09-22.75 156.09-21.9L156.09-21.9Q156.09-21.35 155.77-19.8 155.44-18.25 154.89-16.15 154.34-14.05 153.67-11.68 152.99-9.3 152.29-7.08 151.59-4.85 150.97-3.05 150.34-1.25 149.89-0.25L149.89-0.25Q149.64-0.05 149.06 0.13 148.49 0.3 147.74 0.3L147.74 0.3Q145.69 0.3 145.34-0.65L145.34-0.65Q144.64-2.45 143.74-5.13 142.84-7.8 141.89-10.93 140.94-14.05 139.99-17.2ZM180.14-11.35L163.34-9 163.14-12.15 178.24-14.2Q178.04-16.95 176.34-18.73 174.64-20.5 171.64-20.5L171.64-20.5Q168.54-20.5 166.51-18.28 164.49-16.05 164.49-11.9L164.49-11.9 164.49-10.8Q164.84-6.8 167.11-4.73 169.39-2.65 173.34-2.65L173.34-2.65Q175.44-2.65 177.14-3.35 178.84-4.05 179.84-4.85L179.84-4.85Q180.39-4.5 180.71-4.03 181.04-3.55 181.04-2.95L181.04-2.95Q181.04-2 179.96-1.18 178.89-0.35 177.11 0.15 175.34 0.65 173.14 0.65L173.14 0.65Q169.29 0.65 166.46-0.75 163.64-2.15 162.11-4.93 160.59-7.7 160.59-11.7L160.59-11.7Q160.59-14.55 161.41-16.78 162.24-19 163.71-20.55 165.19-22.1 167.24-22.93 169.29-23.75 171.69-23.75L171.69-23.75Q174.74-23.75 177.06-22.45 179.39-21.15 180.71-18.82 182.04-16.5 182.04-13.5L182.04-13.5Q182.04-12.4 181.54-11.93 181.04-11.45 180.14-11.35L180.14-11.35ZM191.84-18.8L191.84-18.8 191.84-10.9 187.84-10.9 187.84-18.5Q187.84-19.65 188.26-20.33 188.69-21 189.69-21.65L189.69-21.65Q190.99-22.5 193.24-23.13 195.49-23.75 198.24-23.75L198.24-23.75Q202.24-23.75 202.24-21.75L202.24-21.75Q202.24-21.25 202.09-20.83 201.94-20.4 201.69-20.1L201.69-20.1Q201.19-20.2 200.39-20.3 199.59-20.4 198.79-20.4L198.79-20.4Q196.49-20.4 194.74-19.93 192.99-19.45 191.84-18.8ZM187.84-1.55L187.84-13.2 191.84-12.6 191.84-0.1Q191.59 0 191.09 0.13 190.59 0.25 189.99 0.25L189.99 0.25Q188.94 0.25 188.39-0.18 187.84-0.6 187.84-1.55L187.84-1.55ZM233.23-6.15L233.23-6.15Q233.23-2.95 230.88-1.15 228.53 0.65 224.08 0.65L224.08 0.65Q220.28 0.65 217.88-0.53 215.48-1.7 215.48-3.1L215.48-3.1Q215.48-3.7 215.81-4.28 216.13-4.85 216.78-5.2L216.78-5.2Q218.13-4.25 219.93-3.45 221.73-2.65 224.03-2.65L224.03-2.65Q229.23-2.65 229.23-6.15L229.23-6.15Q229.23-7.6 228.36-8.53 227.48-9.45 225.78-9.85L225.78-9.85 221.63-10.95Q218.58-11.7 217.18-13.28 215.78-14.85 215.78-17.2L215.78-17.2Q215.78-19.85 217.93-21.8 220.08-23.75 224.48-23.75L224.48-23.75Q226.83-23.75 228.58-23.28 230.33-22.8 231.31-22.03 232.28-21.25 232.28-20.35L232.28-20.35Q232.28-19.7 231.96-19.2 231.63-18.7 231.08-18.45L231.08-18.45Q230.48-18.85 229.56-19.33 228.63-19.8 227.38-20.13 226.13-20.45 224.63-20.45L224.63-20.45Q222.43-20.45 221.08-19.6 219.73-18.75 219.73-17.2L219.73-17.2Q219.73-16.1 220.51-15.28 221.28-14.45 222.98-14.05L222.98-14.05 226.43-13.2Q229.83-12.4 231.53-10.68 233.23-8.95 233.23-6.15ZM239.33-6.05L239.33-13.2 243.33-13.2 243.33-6.3Q243.33-4.3 244.48-3.48 245.63-2.65 247.63-2.65L247.63-2.65Q248.48-2.65 249.53-2.95 250.58-3.25 251.28-3.65L251.28-3.65Q251.58-3.35 251.83-2.9 252.08-2.45 252.08-1.85L252.08-1.85Q252.08-0.75 250.78-0.05 249.48 0.65 247.18 0.65L247.18 0.65Q243.68 0.65 241.5-0.9 239.33-2.45 239.33-6.05L239.33-6.05ZM250.48-19.3L241.38-19.3 241.38-22.6 251.53-22.6Q251.68-22.4 251.83-21.95 251.98-21.5 251.98-21L251.98-21Q251.98-20.2 251.58-19.75 251.18-19.3 250.48-19.3L250.48-19.3ZM243.33-28.35L243.33-11.7 239.33-11.7 239.33-29.8Q239.58-29.9 240.1-30.03 240.63-30.15 241.23-30.15L241.23-30.15Q242.28-30.15 242.8-29.73 243.33-29.3 243.33-28.35L243.33-28.35ZM257.88-8.45L257.88-8.45 257.88-13 261.88-13 261.88-8.65Q261.88-5.45 263.58-4.05 265.28-2.65 268.28-2.65L268.28-2.65Q270.28-2.65 271.68-3.08 273.08-3.5 273.88-3.95L273.88-3.95 273.88-13 277.88-13 277.88-4.1Q277.88-3.05 277.6-2.43 277.33-1.8 276.28-1.2L276.28-1.2Q275.18-0.55 273.13 0.05 271.08 0.65 268.23 0.65L268.23 0.65Q264.93 0.65 262.6-0.33 260.28-1.3 259.08-3.33 257.88-5.35 257.88-8.45ZM277.88-21.5L277.88-10.4 273.88-10.4 273.88-23Q274.13-23.1 274.65-23.23 275.18-23.35 275.73-23.35L275.73-23.35Q276.83-23.35 277.35-22.93 277.88-22.5 277.88-21.5L277.88-21.5ZM261.88-21.5L261.88-10.4 257.88-10.4 257.88-23Q258.13-23.1 258.65-23.23 259.18-23.35 259.78-23.35L259.78-23.35Q260.83-23.35 261.35-22.93 261.88-22.5 261.88-21.5L261.88-21.5ZM301.12-3.95L301.12-3.95 301.12-20.75 305.12-20.8 305.12-3.8Q305.12-2.85 304.7-2.27 304.27-1.7 303.37-1.15L303.37-1.15Q302.37-0.5 300.52 0.08 298.67 0.65 296.27 0.65L296.27 0.65Q292.67 0.65 289.92-0.6 287.17-1.85 285.62-4.53 284.07-7.2 284.07-11.45L284.07-11.45Q284.07-15.8 285.6-18.5 287.12-21.2 289.72-22.48 292.32-23.75 295.42-23.75L295.42-23.75Q297.37-23.75 299.12-23.2 300.87-22.65 301.87-21.85L301.87-21.85 301.87-18.15Q300.92-19.1 299.4-19.78 297.87-20.45 295.82-20.45L295.82-20.45Q293.77-20.45 292.02-19.58 290.27-18.7 289.22-16.7 288.17-14.7 288.17-11.35L288.17-11.35Q288.17-6.8 290.37-4.73 292.57-2.65 296.22-2.65L296.22-2.65Q297.97-2.65 299.1-3.03 300.22-3.4 301.12-3.95ZM305.12-30.95L305.12-19.8 301.12-19.75 301.12-32.4Q301.37-32.5 301.9-32.63 302.42-32.75 302.97-32.75L302.97-32.75Q304.07-32.75 304.6-32.33 305.12-31.9 305.12-30.95L305.12-30.95ZM330.97-11.35L314.17-9 313.97-12.15 329.07-14.2Q328.87-16.95 327.17-18.73 325.47-20.5 322.47-20.5L322.47-20.5Q319.37-20.5 317.35-18.28 315.32-16.05 315.32-11.9L315.32-11.9 315.32-10.8Q315.67-6.8 317.95-4.73 320.22-2.65 324.17-2.65L324.17-2.65Q326.27-2.65 327.97-3.35 329.67-4.05 330.67-4.85L330.67-4.85Q331.22-4.5 331.55-4.03 331.87-3.55 331.87-2.95L331.87-2.95Q331.87-2 330.8-1.18 329.72-0.35 327.95 0.15 326.17 0.65 323.97 0.65L323.97 0.65Q320.12 0.65 317.3-0.75 314.47-2.15 312.95-4.93 311.42-7.7 311.42-11.7L311.42-11.7Q311.42-14.55 312.25-16.78 313.07-19 314.55-20.55 316.02-22.1 318.07-22.93 320.12-23.75 322.52-23.75L322.52-23.75Q325.57-23.75 327.9-22.45 330.22-21.15 331.55-18.82 332.87-16.5 332.87-13.5L332.87-13.5Q332.87-12.4 332.37-11.93 331.87-11.45 330.97-11.35L330.97-11.35ZM358.67-15.25L358.67-15.25 358.67-10.15 354.67-10.15 354.67-15.05Q354.67-17.85 353.09-19.15 351.52-20.45 348.87-20.45L348.87-20.45Q346.87-20.45 345.32-19.95 343.77-19.45 342.67-18.8L342.67-18.8 342.67-10.15 338.67-10.15 338.67-18.6Q338.67-19.65 339.09-20.33 339.52-21 340.57-21.65L340.57-21.65Q341.87-22.4 344.02-23.08 346.17-23.75 348.87-23.75L348.87-23.75Q353.42-23.75 356.04-21.68 358.67-19.6 358.67-15.25ZM338.67-1.55L338.67-12.9 342.67-12.9 342.67-0.1Q342.42 0 341.92 0.13 341.42 0.25 340.82 0.25L340.82 0.25Q339.77 0.25 339.22-0.18 338.67-0.6 338.67-1.55L338.67-1.55ZM354.67-1.55L354.67-12.9 358.67-12.9 358.67-0.1Q358.42 0 357.89 0.13 357.37 0.25 356.82 0.25L356.82 0.25Q355.72 0.25 355.19-0.18 354.67-0.6 354.67-1.55L354.67-1.55ZM366.22-6.05L366.22-13.2 370.22-13.2 370.22-6.3Q370.22-4.3 371.37-3.48 372.52-2.65 374.52-2.65L374.52-2.65Q375.37-2.65 376.42-2.95 377.47-3.25 378.17-3.65L378.17-3.65Q378.47-3.35 378.72-2.9 378.97-2.45 378.97-1.85L378.97-1.85Q378.97-0.75 377.67-0.05 376.37 0.65 374.06 0.65L374.06 0.65Q370.56 0.65 368.39-0.9 366.22-2.45 366.22-6.05L366.22-6.05ZM377.37-19.3L368.27-19.3 368.27-22.6 378.42-22.6Q378.56-22.4 378.72-21.95 378.87-21.5 378.87-21L378.87-21Q378.87-20.2 378.47-19.75 378.06-19.3 377.37-19.3L377.37-19.3ZM370.22-28.35L370.22-11.7 366.22-11.7 366.22-29.8Q366.47-29.9 366.99-30.03 367.52-30.15 368.12-30.15L368.12-30.15Q369.17-30.15 369.69-29.73 370.22-29.3 370.22-28.35L370.22-28.35ZM401.06-6.15L401.06-6.15Q401.06-2.95 398.71-1.15 396.36 0.65 391.91 0.65L391.91 0.65Q388.11 0.65 385.71-0.53 383.31-1.7 383.31-3.1L383.31-3.1Q383.31-3.7 383.64-4.28 383.96-4.85 384.61-5.2L384.61-5.2Q385.96-4.25 387.76-3.45 389.56-2.65 391.86-2.65L391.86-2.65Q397.06-2.65 397.06-6.15L397.06-6.15Q397.06-7.6 396.19-8.53 395.31-9.45 393.61-9.85L393.61-9.85 389.46-10.95Q386.41-11.7 385.01-13.28 383.61-14.85 383.61-17.2L383.61-17.2Q383.61-19.85 385.76-21.8 387.91-23.75 392.31-23.75L392.31-23.75Q394.66-23.75 396.41-23.28 398.16-22.8 399.14-22.03 400.11-21.25 400.11-20.35L400.11-20.35Q400.11-19.7 399.79-19.2 399.46-18.7 398.91-18.45L398.91-18.45Q398.31-18.85 397.39-19.33 396.46-19.8 395.21-20.13 393.96-20.45 392.46-20.45L392.46-20.45Q390.26-20.45 388.91-19.6 387.56-18.75 387.56-17.2L387.56-17.2Q387.56-16.1 388.34-15.28 389.11-14.45 390.81-14.05L390.81-14.05 394.26-13.2Q397.66-12.4 399.36-10.68 401.06-8.95 401.06-6.15ZM438.56-11.55L438.56-11.55Q438.56-7.85 437.16-5.1 435.76-2.35 433.21-0.85 430.66 0.65 427.21 0.65L427.21 0.65Q423.76 0.65 421.18-0.85 418.61-2.35 417.21-5.1 415.81-7.85 415.81-11.55L415.81-11.55Q415.81-15.3 417.23-18.03 418.66-20.75 421.23-22.25 423.81-23.75 427.21-23.75L427.21-23.75Q430.61-23.75 433.16-22.25 435.71-20.75 437.13-18.03 438.56-15.3 438.56-11.55ZM427.21-20.45L427.21-20.45Q423.86-20.45 421.88-18.07 419.91-15.7 419.91-11.55L419.91-11.55Q419.91-7.35 421.83-5 423.76-2.65 427.21-2.65L427.21-2.65Q430.61-2.65 432.53-5.03 434.46-7.4 434.46-11.55L434.46-11.55Q434.46-15.7 432.53-18.07 430.61-20.45 427.21-20.45ZM457.61-18.55L448.11-18.55 448.11-21.8 458.71-21.8Q458.86-21.6 459.01-21.18 459.16-20.75 459.16-20.2L459.16-20.2Q459.16-19.4 458.76-18.98 458.36-18.55 457.61-18.55L457.61-18.55ZM448.81-24.95L448.81-24.95 448.81-19.1 444.86-19.1 444.86-25.15Q444.86-28.1 445.93-29.93 447.01-31.75 449.03-32.63 451.06-33.5 453.86-33.5L453.86-33.5Q456.71-33.5 458.33-32.75 459.96-32 459.96-30.9L459.96-30.9Q459.96-30.35 459.73-29.9 459.51-29.45 459.11-29.05L459.11-29.05Q458.21-29.55 456.86-29.88 455.51-30.2 454.26-30.2L454.26-30.2Q451.21-30.2 450.01-28.95 448.81-27.7 448.81-24.95ZM444.86-1.55L444.86-21.3 448.86-21.3 448.86-0.1Q448.61 0 448.11 0.13 447.61 0.25 447.01 0.25L447.01 0.25Q445.96 0.25 445.41-0.18 444.86-0.6 444.86-1.55L444.86-1.55ZM475.4-1.6L475.4-18.1 479.5-18.1 479.5-0.1Q479.2 0 478.7 0.13 478.2 0.25 477.6 0.25L477.6 0.25Q476.5 0.25 475.95-0.2 475.4-0.65 475.4-1.6L475.4-1.6ZM479.5-28.8L479.5-14.75 475.4-14.75 475.4-30.3Q475.65-30.4 476.18-30.53 476.7-30.65 477.3-30.65L477.3-30.65Q478.4-30.65 478.95-30.23 479.5-29.8 479.5-28.8L479.5-28.8ZM495.1-1.6L495.1-18.1 499.2-18.1 499.2-0.1Q498.9 0 498.4 0.13 497.9 0.25 497.3 0.25L497.3 0.25Q496.2 0.25 495.65-0.2 495.1-0.65 495.1-1.6L495.1-1.6ZM499.2-28.8L499.2-14.75 495.1-14.75 495.1-30.3Q495.35-30.4 495.88-30.53 496.4-30.65 497-30.65L497-30.65Q498.1-30.65 498.65-30.23 499.2-29.8 499.2-28.8L499.2-28.8ZM497.25-17.1L497.25-13.7 477.85-13.7 477.85-17.1 497.25-17.1ZM510.9-17.45L524.65-17.45 524.65-14.15 510.9-14.15 510.9-17.45ZM518.9-14.15L518.9-14.15 520.5-16.65Q523.9-16.65 526.15-15.53 528.4-14.4 529.52-12.55 530.65-10.7 530.65-8.4L530.65-8.4Q530.65-3.85 527.37-1.65 524.1 0.55 518.05 0.55L518.05 0.55Q516.7 0.55 515.35 0.48 514 0.4 512.7 0.2 511.4 0 510.2-0.3L510.2-0.3Q508.1-0.9 508.1-2.6L508.1-2.6 508.1-28.2Q508.1-29 508.52-29.45 508.95-29.9 509.75-30.1L509.75-30.1Q511.45-30.6 513.37-30.78 515.3-30.95 517.5-30.95L517.5-30.95Q523.15-30.95 526.3-28.93 529.45-26.9 529.45-22.75L529.45-22.75Q529.45-20.65 528.42-18.88 527.4-17.1 525.12-16.03 522.85-14.95 519.05-14.95L519.05-14.95 518.6-17.45Q521.9-17.45 523.6-18.82 525.3-20.2 525.3-22.65L525.3-22.65Q525.3-25.15 523.32-26.38 521.35-27.6 517.5-27.6L517.5-27.6Q515.8-27.6 514.5-27.48 513.2-27.35 512.1-27.15L512.1-27.15 512.1-3.35Q513.3-3.1 514.87-2.95 516.45-2.8 518.05-2.8L518.05-2.8Q522.2-2.8 524.35-4.2 526.5-5.6 526.5-8.5L526.5-8.5Q526.5-11.1 524.57-12.63 522.65-14.15 518.9-14.15ZM560.25-27.05L560.25-27.05Q560.25-26.4 559.82-25.88 559.39-25.35 558.85-25.1L558.85-25.1Q557.6-26 555.82-26.8 554.05-27.6 551.25-27.6L551.25-27.6Q548.2-27.6 545.77-26.2 543.35-24.8 541.92-22.03 540.5-19.25 540.5-15.15L540.5-15.15Q540.5-9 543.52-5.9 546.55-2.8 551.39-2.8L551.39-2.8Q554-2.8 555.95-3.55 557.89-4.3 559.14-5.25L559.14-5.25Q559.64-5.05 560.1-4.53 560.55-4 560.55-3.3L560.55-3.3Q560.55-2.8 560.27-2.33 560-1.85 559.35-1.4L559.35-1.4Q558.2-0.6 556.2 0.03 554.2 0.65 551.1 0.65L551.1 0.65Q546.95 0.65 543.57-1.13 540.2-2.9 538.25-6.4 536.3-9.9 536.3-15.15L536.3-15.15Q536.3-20.4 538.32-23.95 540.35-27.5 543.67-29.28 547-31.05 550.95-31.05L550.95-31.05Q553.7-31.05 555.8-30.45 557.89-29.85 559.07-28.93 560.25-28 560.25-27.05ZM579.19 0.65L579.19 0.65Q575.44 0.65 572.79-0.73 570.14-2.1 568.77-4.63 567.39-7.15 567.39-10.5L567.39-10.5 567.39-14.6 571.44-14.6 571.44-10.85Q571.44-6.85 573.67-4.83 575.89-2.8 579.19-2.8L579.19-2.8Q582.49-2.8 584.72-4.83 586.94-6.85 586.94-10.85L586.94-10.85 586.94-14.6 591.04-14.6 591.04-10.5Q591.04-7.15 589.67-4.63 588.29-2.1 585.64-0.73 582.99 0.65 579.19 0.65ZM571.44-28.8L571.44-12.55 567.39-12.55 567.39-30.3Q567.64-30.4 568.17-30.53 568.69-30.65 569.29-30.65L569.29-30.65Q570.39-30.65 570.92-30.23 571.44-29.8 571.44-28.8L571.44-28.8ZM591.04-28.8L591.04-12.55 586.94-12.55 586.94-30.3Q587.19-30.4 587.72-30.53 588.24-30.65 588.84-30.65L588.84-30.65Q589.94-30.65 590.49-30.23 591.04-29.8 591.04-28.8L591.04-28.8ZM615.49-6.15L615.49-6.15Q615.49-2.95 613.14-1.15 610.79 0.65 606.34 0.65L606.34 0.65Q602.54 0.65 600.14-0.53 597.74-1.7 597.74-3.1L597.74-3.1Q597.74-3.7 598.06-4.28 598.39-4.85 599.04-5.2L599.04-5.2Q600.39-4.25 602.19-3.45 603.99-2.65 606.29-2.65L606.29-2.65Q611.49-2.65 611.49-6.15L611.49-6.15Q611.49-7.6 610.61-8.53 609.74-9.45 608.04-9.85L608.04-9.85 603.89-10.95Q600.84-11.7 599.44-13.28 598.04-14.85 598.04-17.2L598.04-17.2Q598.04-19.85 600.19-21.8 602.34-23.75 606.74-23.75L606.74-23.75Q609.09-23.75 610.84-23.28 612.59-22.8 613.56-22.03 614.54-21.25 614.54-20.35L614.54-20.35Q614.54-19.7 614.21-19.2 613.89-18.7 613.34-18.45L613.34-18.45Q612.74-18.85 611.81-19.33 610.89-19.8 609.64-20.13 608.39-20.45 606.89-20.45L606.89-20.45Q604.69-20.45 603.34-19.6 601.99-18.75 601.99-17.2L601.99-17.2Q601.99-16.1 602.76-15.28 603.54-14.45 605.24-14.05L605.24-14.05 608.69-13.2Q612.09-12.4 613.79-10.68 615.49-8.95 615.49-6.15ZM639.78 0.7L639.78 0.7Q635.08 0.7 632.51-1.15 629.93-3 629.93-6.5L629.93-6.5Q629.93-9.75 632.11-11.48 634.28-13.2 638.13-13.55L638.13-13.55 645.23-14.25 645.23-15.65Q645.23-18.15 643.73-19.3 642.23-20.45 639.68-20.45L639.68-20.45Q637.63-20.45 635.76-19.85 633.88-19.25 632.43-18.5L632.43-18.5Q632.03-18.85 631.71-19.33 631.38-19.8 631.38-20.3L631.38-20.3Q631.38-21.6 632.83-22.3L632.83-22.3Q634.18-23 635.96-23.38 637.73-23.75 639.73-23.75L639.73-23.75Q644.08-23.75 646.63-21.8 649.18-19.85 649.18-15.65L649.18-15.65 649.18-3.8Q649.18-2.7 648.76-2.13 648.33-1.55 647.48-1.05L647.48-1.05Q646.28-0.4 644.28 0.15 642.28 0.7 639.78 0.7ZM639.78-2.6L639.78-2.6Q641.88-2.6 643.26-3.03 644.63-3.45 645.23-3.85L645.23-3.85 645.23-11.1 639.03-10.45Q636.43-10.25 635.18-9.3 633.93-8.35 633.93-6.55L633.93-6.55Q633.93-4.7 635.41-3.65 636.88-2.6 639.78-2.6ZM676.48-15.25L676.48-15.25 676.48-10.15 672.48-10.15 672.48-15.05Q672.48-17.85 670.91-19.15 669.33-20.45 666.68-20.45L666.68-20.45Q664.68-20.45 663.13-19.95 661.58-19.45 660.48-18.8L660.48-18.8 660.48-10.15 656.48-10.15 656.48-18.6Q656.48-19.65 656.91-20.33 657.33-21 658.38-21.65L658.38-21.65Q659.68-22.4 661.83-23.08 663.98-23.75 666.68-23.75L666.68-23.75Q671.23-23.75 673.86-21.68 676.48-19.6 676.48-15.25ZM656.48-1.55L656.48-12.9 660.48-12.9 660.48-0.1Q660.23 0 659.73 0.13 659.23 0.25 658.63 0.25L658.63 0.25Q657.58 0.25 657.03-0.18 656.48-0.6 656.48-1.55L656.48-1.55ZM672.48-1.55L672.48-12.9 676.48-12.9 676.48-0.1Q676.23 0 675.71 0.13 675.18 0.25 674.63 0.25L674.63 0.25Q673.53 0.25 673.01-0.18 672.48-0.6 672.48-1.55L672.48-1.55ZM699.73-3.95L699.73-3.95 699.73-20.75 703.73-20.8 703.73-3.8Q703.73-2.85 703.3-2.27 702.88-1.7 701.98-1.15L701.98-1.15Q700.98-0.5 699.13 0.08 697.28 0.65 694.88 0.65L694.88 0.65Q691.28 0.65 688.53-0.6 685.78-1.85 684.23-4.53 682.68-7.2 682.68-11.45L682.68-11.45Q682.68-15.8 684.2-18.5 685.73-21.2 688.33-22.48 690.93-23.75 694.03-23.75L694.03-23.75Q695.98-23.75 697.73-23.2 699.48-22.65 700.48-21.85L700.48-21.85 700.48-18.15Q699.53-19.1 698-19.78 696.48-20.45 694.43-20.45L694.43-20.45Q692.38-20.45 690.63-19.58 688.88-18.7 687.83-16.7 686.78-14.7 686.78-11.35L686.78-11.35Q686.78-6.8 688.98-4.73 691.18-2.65 694.83-2.65L694.83-2.65Q696.58-2.65 697.7-3.03 698.83-3.4 699.73-3.95ZM703.73-30.95L703.73-19.8 699.73-19.75 699.73-32.4Q699.98-32.5 700.5-32.63 701.03-32.75 701.58-32.75L701.58-32.75Q702.68-32.75 703.2-32.33 703.73-31.9 703.73-30.95L703.73-30.95ZM739.32-7.9L739.32-7.9Q738.97-7.65 738.4-7.45 737.82-7.25 737.12-7.25L737.12-7.25Q736.32-7.25 735.7-7.5 735.07-7.75 734.82-8.3L734.82-8.3Q732.17-13.9 730.2-18.55 728.22-23.2 727.02-26.25L727.02-26.25 726.82-26.25Q726.67-22.5 726.5-19.25 726.32-16 726.12-12.98 725.92-9.95 725.75-6.78 725.57-3.6 725.32 0L725.32 0Q725.02 0.1 724.55 0.2 724.07 0.3 723.52 0.3L723.52 0.3Q722.42 0.3 721.97-0.18 721.52-0.65 721.52-1.45L721.52-1.45Q721.52-2.05 721.65-4.23 721.77-6.4 721.95-9.55 722.12-12.7 722.37-16.28 722.62-19.85 722.9-23.33 723.17-26.8 723.42-29.6L723.42-29.6Q723.82-29.95 724.57-30.25 725.32-30.55 726.27-30.55L726.27-30.55Q727.42-30.55 728.22-30.1 729.02-29.65 729.47-28.7L729.47-28.7Q730.77-26.15 732.07-23.15 733.37-20.15 734.62-17.15 735.87-14.15 737.02-11.5L737.02-11.5 737.22-11.5Q739.42-16.8 741.6-21.7 743.77-26.6 745.27-30.05L745.27-30.05Q745.72-30.3 746.42-30.43 747.12-30.55 747.72-30.55L747.72-30.55Q748.87-30.55 749.55-30.18 750.22-29.8 750.42-28.95L750.42-28.95Q750.62-28.1 750.87-26.05 751.12-24 751.37-21.23 751.62-18.45 751.85-15.4 752.07-12.35 752.27-9.4 752.47-6.45 752.65-4.08 752.82-1.7 752.87-0.3L752.87-0.3Q752.42 0 751.92 0.15 751.42 0.3 750.77 0.3L750.77 0.3Q750.02 0.3 749.45-0.08 748.87-0.45 748.77-1.45L748.77-1.45Q748.47-6.3 748.2-11.03 747.92-15.75 747.72-19.7 747.52-23.65 747.37-26.15L747.37-26.15 747.17-26.15Q746.07-23.4 744.17-19.07 742.27-14.75 739.32-7.9ZM769.42-2.75L769.42-2.75Q772.77-2.75 774.5-4.28 776.22-5.8 776.22-8.2L776.22-8.2Q776.22-10.25 774.9-11.6 773.57-12.95 770.72-13.75L770.72-13.75 766.37-15.05Q764.27-15.7 762.72-16.73 761.17-17.75 760.35-19.28 759.52-20.8 759.52-22.85L759.52-22.85Q759.52-26.7 762.32-28.88 765.12-31.05 769.77-31.05L769.77-31.05Q772.47-31.05 774.6-30.48 776.72-29.9 777.95-29 779.17-28.1 779.17-27.1L779.17-27.1Q779.17-26.45 778.82-25.93 778.47-25.4 777.92-25.1L777.92-25.1Q776.67-26.1 774.55-26.85 772.42-27.6 769.92-27.6L769.92-27.6Q767.02-27.6 765.32-26.33 763.62-25.05 763.62-22.85L763.62-22.85Q763.62-21.1 764.85-20 766.07-18.9 768.82-18.1L768.82-18.1 771.87-17.2Q775.82-16.1 778.1-14 780.37-11.9 780.37-8.2L780.37-8.2Q780.37-4.25 777.5-1.8 774.62 0.65 769.42 0.65L769.42 0.65Q766.37 0.65 764.1-0.03 761.82-0.7 760.55-1.73 759.27-2.75 759.27-3.75L759.27-3.75Q759.27-4.6 759.8-5.18 760.32-5.75 761.02-6L761.02-6Q762.17-4.9 764.27-3.83 766.37-2.75 769.42-2.75ZM787.22-1.6L787.22-18.15 791.27-18.15 791.27-0.1Q791.02 0 790.52 0.13 790.02 0.25 789.42 0.25L789.42 0.25Q788.32 0.25 787.77-0.2 787.22-0.65 787.22-1.6L787.22-1.6ZM791.27-28.8L791.27-14.8 787.22-14.8 787.22-30.3Q787.47-30.4 787.99-30.53 788.52-30.65 789.12-30.65L789.12-30.65Q790.22-30.65 790.74-30.23 791.27-29.8 791.27-28.8L791.27-28.8ZM815.87-6.15L815.87-6.15Q815.87-2.95 813.52-1.15 811.17 0.65 806.72 0.65L806.72 0.65Q802.92 0.65 800.52-0.53 798.12-1.7 798.12-3.1L798.12-3.1Q798.12-3.7 798.44-4.28 798.77-4.85 799.42-5.2L799.42-5.2Q800.77-4.25 802.57-3.45 804.37-2.65 806.67-2.65L806.67-2.65Q811.87-2.65 811.87-6.15L811.87-6.15Q811.87-7.6 810.99-8.53 810.12-9.45 808.42-9.85L808.42-9.85 804.27-10.95Q801.22-11.7 799.82-13.28 798.42-14.85 798.42-17.2L798.42-17.2Q798.42-19.85 800.57-21.8 802.72-23.75 807.12-23.75L807.12-23.75Q809.47-23.75 811.22-23.28 812.97-22.8 813.94-22.03 814.92-21.25 814.92-20.35L814.92-20.35Q814.92-19.7 814.59-19.2 814.27-18.7 813.72-18.45L813.72-18.45Q813.12-18.85 812.19-19.33 811.27-19.8 810.02-20.13 808.77-20.45 807.27-20.45L807.27-20.45Q805.07-20.45 803.72-19.6 802.37-18.75 802.37-17.2L802.37-17.2Q802.37-16.1 803.14-15.28 803.92-14.45 805.62-14.05L805.62-14.05 809.07-13.2Q812.47-12.4 814.17-10.68 815.87-8.95 815.87-6.15Z" opacity="1" transform="matrix(1,0,0,1,0,0)" fill="#0183e6" class="slogan-text-1" data-fill-palette-color="secondary" id="text-1"></path></svg></g></svg></g></svg></g></svg></g><g transform="matrix(1,0,0,1,410.4218718178194,0)"><svg viewBox="0 0 195.60120115297744 128.07132429558303" height="128.07132429558303" width="195.60120115297744"><g><svg xmlns="http://www.w3.org/2000/svg" xmlns:xlink="http://www.w3.org/1999/xlink" version="1.1" x="0" y="0" viewBox="10.787 24.324999999999996 78.426 51.350000000000016" style="enable-background:new 0 0 100 100;" xml:space="preserve" height="128.07132429558303" width="195.60120115297744" class="icon-icon-0" data-fill-palette-color="accent" id="icon-0"><path d="M74.581 45.32l-0.391 0.341-0.045-0.248L74.581 45.32zM49.812 39.916l-0.104 0.443 0.213 1.33 1.283 3.677 5.305-0.133c0 0 0.169 0.179 0.216 0.228l0.459-0.811c-0.326-0.371-0.392-0.607-0.221-0.774 0.046-0.045 0.389-0.569 0.389-0.569h0.682l0.224-0.494L56.943 41.3l-0.224-1.186-0.245-0.198H49.812zM73.656 45.517l-1.391 0.297-0.133-0.531c-0.033 0.18-0.13 0.7-0.13 0.7l-1.483 1.432-0.33 1.123v0.539l0.834 1.127 0.422 0.221 1.621-0.889 0.563-2.479 0.271 0.108c0.226 0.09 0.369 0.149 0.461 0.19 0.148-0.165 0.437-0.523 0.685-0.848l0.179-0.891-0.269 0.042-1.101 0.96L73.656 45.517zM62.177 42.559c-0.112-0.26-0.249-0.573-0.383-0.88l-3.54 0.31 0.583 0.756-0.481 1.063h-0.729c-0.063 0.096-0.146 0.221-0.22 0.315 0.055 0.084 0.393 0.454 0.393 0.454l-0.735 1.301c0.037 0.135 0.147 1.059 0.164 1.151 0.135 0.101 1.025 0.634 1.025 0.634l0.161 0.812 0.19-0.187 0.646 0.836-0.371 0.871 1.235 1.083 0.228 0.883h0.037l0.389-0.313 0.449 0.142 0.538-0.922v-0.992l0.644-1.159-0.219-0.52L62.177 42.559zM62.257 50.438l0.668-0.492 0.587 0.369 1.297-0.456 0.832-1.618 0.612-0.216-0.58-5.521-2.957 0.036c-0.013 0.029-0.024 0.054-0.038 0.081l0.004 5.517 0.279 0.595-0.704 1.269V50.438zM65.162 50.265l-1.714 0.603-0.503-0.316-0.75 0.553-0.746 1.279-0.574-0.18-0.076 0.061 0.303 0.479-0.047 0.118c-0.037 0.095-0.072 0.178-0.105 0.251l0.764-0.085 0.385-0.313 6.672-0.736 1.752-1.612-0.834-1.126v-0.602l-0.492-0.311-0.635 0.362-1.145-0.281-0.328-0.559-0.359-0.079 0.063 0.593-0.798 0.282L65.162 50.265zM55.064 37.266c0.197 0.12 0.666 0.484 1.979 1.587l0.152 0.128L56.877 39.6l0.298 0.241 0.224 1.18 0.492 0.498 3.692-0.323c-0.175-0.4-0.31-0.708-0.317-0.718-0.021-0.032 0.897-4.639 0.897-4.639l-1.341 1.449 0.441-0.932c-0.467-0.342-0.468-0.412-0.468-0.517v-0.79l-0.948-0.179-1.677-0.563-0.644-0.501v-0.414l-0.469 0.277-0.127-0.611-1.361 0.649-0.146 1.245-0.525 0.569 0.252 0.676-0.271 0.33C54.938 36.826 55.018 37.148 55.064 37.266zM77.971 46.307c0 0-0.203 0.514-0.298 0.753 0.158 0.04 0.384 0.091 0.582 0.13l0.595-0.003-0.459-1.994 0.282-0.748-1.106 0.236 0.275 0.705-0.51 0.44C77.453 45.912 77.971 46.307 77.971 46.307zM79.541 46.913l-0.605-1.719-0.244 0.574 0.75 1.432 0.295 1.833 0.539-2.313L79.541 46.913zM79.941 45.169l-0.676-0.55 0.594 1.694 0.586-0.321L79.941 45.169zM51.234 46.918l-9.148-0.044-0.219 5.348c1.253 0.049 7.507 0.217 10.314 0.291v-3.896c-0.736-0.66-0.736-0.752-0.736-0.858v-0.491L51.234 46.918zM48.708 41.458c-0.132 0.075-0.94 0.581-0.94 0.581s-0.558-0.904-0.662-1.012c-0.458-0.03-4.431-0.185-7.225-0.291-0.094 1.462-0.172 2.681-0.218 3.408l2.524 0.279-0.08 1.951 8.926 0.043-1.563-4.503C49.181 41.727 48.852 41.526 48.708 41.458zM79.777 50.314l-0.336-0.78-0.465-1.848h-0.77c-0.979-0.189-1.018-0.253-1.073-0.351 0 0 0.142-0.631 0.233-0.86-0.215-0.162-0.434-0.321-0.518-0.37-0.117-0.014-0.404-0.059-1.176-0.198l-0.197 0.858c-0.928 1.22-1.004 1.228-1.211 1.096-0.037-0.021-0.16-0.072-0.279-0.121l-0.482 2.127-2.053 1.125-0.557-0.29-1.287 1.188 1.594-0.177L79.777 50.314zM66.176 42.498l0.499 4.75 0.735 0.162 0.332 0.564 0.746 0.184 0.72-0.413 0.585 0.369 0.284-0.965 1.465-1.412c0.117-0.63 0.29-1.579 0.301-1.67-0.011-0.07-0.26-1.763-0.456-3.087l-2.398 1.785-0.967-0.407-0.299 0.123L66.176 42.498zM77.249 45.238l-0.176-0.451-0.818 0.175 0.55 0.631c0.011 0.002 0.018 0.003 0.028 0.004L77.249 45.238zM72.633 45.225l6.408-1.368 1.157-1.104-0.847-0.814-0.307-1.755-0.311-0.11c-1.055 0.059-1.392 0.069-1.518 0.062-0.26 0.042-4.518 1.06-4.518 1.06l-0.551-0.787-0.311 0.231c0.396 2.67 0.479 3.262 0.496 3.399L72.633 45.225zM72.915 40.628c4.237-1.02 4.282-1.007 4.373-0.981 0.049-0.003 0.799-0.038 1.47-0.075l0.322 0.094 0.615-0.07 0.4 1.145 0.578-0.342 1.496 0.618 0.153-0.103-0.341-0.734-0.028-1.219c0-0.002 0-0.004 0-0.006l-0.032-1.367-0.313-1.467-0.465-1.137v-0.701l-0.424-0.947-2.604 0.38-1.438 2.014 0.235 1.085c0 0-1.204 1.04-1.3 1.102-0.096 0.063-1.062-0.358-1.062-0.358l-1.125 0.808 0.384 0.804-1.256 0.935L72.915 40.628zM66.509 55.935l0.418 1.901 0.985 2.946 0.262 2.635 0.23 0.326 3.962-0.338 0.087 0.07v-0.562h0.992l0.85-1.612-4.165-4.845-1.085-0.517 0.27-0.23L66.509 55.935zM41.367 52.208l0.301-7.34-2.135-0.236-6.966-0.739c-0.279 2.079-0.631 4.702-0.984 7.342l8.498 0.972L41.367 52.208zM85.775 36.113l-0.217-1.271 3.655-3.548-2.387-4.563-1.859 0.219-0.706 4.55-0.263 0.326 1.64 4.294L85.775 36.113zM85.127 36.185l-1.493-3.91-0.108 0.134 0.222 1.066-0.39 1.014v2.52l1.256-0.308L85.127 36.185zM81.645 34.935l0.438 1.038 0.276 1.283 0.498-0.123 0.017-2.779 0.353-0.917-0.145-0.7-1.866 0.5 0.429 0.995V34.935zM74.545 60.828l2.248-4.265-1.781-1.348-1.352 0.282-0.876-0.726-1.836 0.197-0.994 0.852 0.521 0.271L74.545 60.828zM70.575 52.908l0.396-0.668L62.3 53.196l-0.385 0.312-1.558 0.175-0.252 1.181-0.391 0.627-0.074 0.491 7.834-0.623 2.713-2.449L70.575 52.908zM32.072 43.828l-2.785-0.436 0.256-1.994c-1.304-0.214-3.025-0.494-3.619-0.582l-1.742 9.214 6.905 1.136C31.506 48.041 31.891 45.172 32.072 43.828zM39.164 44.089c0.058-0.91 0.26-4.068 0.474-7.407l-8.8-0.946L30.707 36.2l-0.863 6.774 2.534 0.396L39.164 44.089zM45.722 57.599l0.156 0.332 1.47 0.274 0.448 0.552 1.148-0.177 0.954 0.433 2.07-0.438 0.565 0.366v-3.088l-0.325-2.838c-3.189-0.082-9.908-0.264-10.579-0.306h-1.316l-0.018 0.62h4.412v4.01L45.722 57.599zM59.939 53.226l0.412-0.045c0.043-0.068 0.116-0.214 0.19-0.387l-0.211-0.335h-0.376l-0.284-1.108-1.392-1.221 0.397-0.934-0.124-0.16-0.449 0.437-0.297-1.493c-0.91-0.537-0.973-0.627-1.002-0.671-0.059-0.085-0.188-1.167-0.218-1.287-0.087-0.072-0.205-0.191-0.291-0.282l-4.928 0.123 0.243 0.727 0.332 0.539v0.563c0.096 0.113 0.396 0.398 0.652 0.626l0.084 0.075v4.364l0.084 0.737c0.594-0.052 6.402-0.167 6.402-0.167l0.538 0.581-0.507 0.448 0.496 0.086L59.939 53.226zM58.555 57.478v-0.799l0.563-0.546 0.148-0.862 0.221-0.356-1.396-0.243 0.901-0.798-0.038-0.042c-2.176 0.036-5.285 0.102-6.133 0.15l0.211 1.842 0.002 3.39 0.705 0.21v0.778h3.963l-0.081-0.287 0.276-1.892L58.555 57.478zM16.702 44.409l5.658 8.611c0.055-0.479 0.194-1.652 0.194-1.652h0.681l0.154 0.16 2.041-10.795c-0.802-0.167-3.346-0.738-7.587-1.701L16.702 44.409zM62.176 56.28l-2.718 0.217-0.403 0.393v0.821l-0.688 0.573-0.234 1.596 0.593 2.111-0.615 0.963-0.295 1.175h2.806l-0.081 0.813 0.664 0.685c0.025-0.053 0.048-0.092 0.059-0.092 0.021 0 0.553-0.078 1.254-0.183l-0.336-2.715L62.176 56.28zM67.659 63.284l-0.233-2.398-0.98-2.916-0.438-1.994-3.33 0.265v6.364l0.334 2.672c0.296-0.043 0.601-0.09 0.906-0.135l-0.485-1.416L67.659 63.284zM60.768 66.909c-0.035-0.012 0.094-0.411 0.229-0.777l-0.979-1.009 0.049-0.494H57.17l0.495-1.909 0.517-0.809-0.34-1.211h-4.104v1.768l0.431 0.448 0.545 1.356-0.421 1.383 0.13 0.439-0.276 0.844c1.135 0.16 5.729 0.908 5.785 0.908 0.063 0 0.149-0.604 0.149-0.604l1.114 0.771 0.451-0.063C61.645 67.951 60.831 66.931 60.768 66.909zM36.042 71.649h0.881l-0.881-0.313V71.649zM37.164 71.883l0.534 0.572 0.561-0.312-0.962-0.494L37.164 71.883zM54.186 64.297l-0.461-1.146-0.486-0.473v-2.885l-0.59-0.188-0.777-0.504-2.029 0.433-0.968-0.438-1.285 0.196-0.513-0.632-1.541-0.286-0.165-0.353-1.162-0.299v-3.896H40.27l-0.675 8.71-5.621-0.616 0.042 0.469c0.701 0.758 2.337 2.519 2.466 2.592 0.164 0.094 0 1.438 0 1.438l1.937 1.725 0.889-1.432 2.299 0.176 3.521 6.344c0 0 2.99 1.313 3.087 1.313l-0.289-3.155c0 0 4.346-3.242 5.613-4.205l0.359-1.098-0.127-0.434L54.186 64.297zM73.564 63.415h-0.61v1.118l-0.747-0.612-4.044 0.346-0.351-0.496-3.705 0.389 0.311 0.906c0.91-0.137 1.665-0.25 1.665-0.25l1.437 1.47c0 0 1.951-1.25 1.98-1.25s2.734 2 2.734 2-0.106 1.542-0.086 1.646c0.021 0.104 3.58 5.209 3.645 5.271 0.065 0.062 1.18-0.521 1.266-0.542s0.063-3.208 0.063-3.271C77.123 70.085 74.323 64.838 73.564 63.415zM58.027 33.562l0.416 0.324 1.527 0.5 1.324 0.248v1.11c0.042 0.037 0.112 0.091 0.186 0.148l0.348-0.733c0 0 2.439-0.486 2.502-0.536 0 0-1.293 3.008-1.271 3.17 0.021 0.162 0.584 2.715 0.584 2.749 0 0.019-0.363 0.795-0.692 1.495l4.711-0.058 0.065-0.029 0.197-4.625c0 0-1.318 1.031-1.482 1.094s0.711-1.781 0.711-1.781l-0.449-1.344-3.408-2.031L60.821 32.7l-0.93 0.119 1.314-1.181L60.82 31.45l-2.793 1.647V33.562zM84.557 39.383l-0.289-0.719c-0.719 0.181-1.488 0.378-1.811 0.47l0.023 0.98 0.256 0.522L84.557 39.383zM84.758 38.541l0.229 0.569 0.312-0.197-0.428-0.401C84.834 38.522 84.794 38.532 84.758 38.541zM85.384 36.636l-0.515 0.517-2.443 0.603 0.02 0.867c0.4-0.121 2.566-0.658 2.566-0.658l0.723 0.675 0.425-0.269-0.3-1.76L85.384 36.636zM82.227 41.582l-1.514-0.626-0.449 0.265 0.375 1.072 1.565 1.428 0.086-1.01 2.272-2.345c0 0-0.229-0.07-0.371-0.105L82.227 41.582zM79.499 44.109l1.336 1.037 0.282-1.509-0.551-0.531C80.545 43.118 79.499 44.109 79.499 44.109zM79.9 50.799l-8.297 1.354-0.744 1.256H70.38l-2.088 1.884 1.668-0.133 0.781-0.669 2.199-0.237 0.853 0.706 1.339-0.277 2.094 1.584 0.711-0.168 0.179-0.834 2.479-3.043-0.619-1.443L79.9 50.799zM40.049 73.778c0 0-1.229-0.649-1.336-0.676l0.214 0.598-0.508 0.313 0.294 0.375-0.16 1.025 0.508 0.26 0.294-0.597 0.801-0.208 0.481-0.393-0.588-0.387V73.778zM36.769 72.347l0.154-0.117-0.309-0.33L36.769 72.347zM27.179 31.571l-0.555 1.988 0.585-0.576 0.452 0.734 0.57 2.106 0.609-0.213 1.443 0.253 0.188-0.671 9.199 0.989c0.238-3.725 0.481-7.539 0.548-8.628l-14.151-2.009-0.439 3.086 0.486 1.166L27.179 31.571zM16.173 30.587l1.875 0.336 3.077-0.004 2.076 0.785 1.369-6.372-7.096-1.007 0.386 1.813-0.836 1.281-0.064-1.438-2.058-1.375-0.155 4.06 1.425 0.937L16.173 30.587zM49.509 31.766l0.36 3.337-0.03 0.063c-0.149 0.315-0.316 0.715-0.329 0.808 0.023-0.02 0.353 0.223 0.353 0.223v3.219h6.547l0.158-0.309c-0.752-0.63-1.547-1.277-1.739-1.405-0.16-0.025-0.487-1.31-0.487-1.31l0.238-0.29-0.26-0.693 0.627-0.677 0.158-1.356 0.629-0.3 1.195-1.406 1.618-0.875h-2.625l-3.491-1.25-0.68-1.238-0.378 0.832-2.204-0.313c-0.01 0.544-0.007 2.068 0.015 2.235C49.212 31.124 49.509 31.766 49.509 31.766zM21.533 39.355l1.108-3.91-0.578-0.579 1.582-2.104-0.411-0.511-2.2-0.832h-3.029l-2.332-0.414v-1.133l-1.042-0.685-2.59 5.654-0.085 1.781 5.774 1.871C18.878 38.755 20.25 39.066 21.533 39.355zM47.247 40.541c0.082 0.019 0.226 0.05 0.688 0.801 0.375-0.234 0.601-0.365 0.672-0.388 0.092-0.031 0.181-0.051 0.735 0.287l-0.144-0.9 0.165-0.704v-3.168c-0.165-0.12-0.353-0.302-0.353-0.507 0-0.107 0.077-0.335 0.223-0.669l-8.979-0.408c-0.116 1.824-0.237 3.712-0.342 5.352C42.706 40.343 47.108 40.513 47.247 40.541zM49.017 31.862c-0.085-0.175-0.281-0.582-0.313-0.674-0.043-0.125-0.05-1.768-0.022-2.433l-7.968-1.131c-0.06 0.976-0.235 3.73-0.428 6.761l9.047 0.411L49.017 31.862zM24.278 32.752l-1.556 2.066 0.479 0.479-1.18 4.167c1.953 0.44 6.082 1.19 7.584 1.437l0.578-4.548-1.302-0.228-0.993 0.348-0.771-2.7-0.631 0.623-0.424-0.839 0.573-1.919-0.968-1.618-0.556-1.324 0.459-3.223-0.504-0.072-1.413 6.575L24.278 32.752zM39.136 61.985l0.653-8.42 0.025-0.885-8.297-0.949c-0.618 4.621-1.225 9.175-1.433 10.795l0.832 0.111 0.289-0.594h2.277l-0.062-0.688L39.136 61.985zM31.367 69.858h0.508v-0.364h-0.508V69.858zM34.306 70.56v0.336l0.748 0.156L34.68 70.56H34.306zM24.089 50.522L23.7 52.578l-0.702-0.71c-0.11 0.932-0.255 2.174-0.26 2.277 0.02 0.056 0.267 0.668 0.493 1.203l0.074 0.176-0.628 0.496-0.853 1.336 0.489 0.416-0.358 0.812-0.103-0.032 4.628 3.493 3.111 0.416c0.219-1.718 0.848-6.438 1.432-10.799L24.089 50.522zM13.07 52.458l1.736 0.743 2.54 2.728 0.193 1.772 3.369 0.364 0.293-0.242 0.477 0.148 0.026-0.061-0.537-0.455 1.167-1.803 0.363-0.286c-0.458-1.095-0.458-1.179-0.458-1.229 0-0.025 0.013-0.154 0.034-0.341l-6.103-9.287 1.192-5.609-5.431-1.759L11.88 38.2l-1.093 1.466 0.129 3.097c0 0 2.347 8.156 2.347 8.25S13.07 52.458 13.07 52.458zM24.663 72.479l-1.549-1.037v-7.191l-5.316-1.428-2.458 1.09 0.481 0.52c0 0 0.107 0.648 0.134 0.727 0.027 0.079 0.508 0.285 0.508 0.285s-0.214 0.754-0.294 0.754-0.588-0.078-0.588-0.078l-0.027-0.571-1.149 0.286c0 0-0.134 0.753-0.134 0.831s1.977 1.324 1.977 1.324l-1.576 0.26c0 0-1.042 0.778-1.122 0.856s1.95 3.22 1.95 3.22l1.042-0.286-1.469 1.506-2.19 0.727 2.19-0.312 2.778-1.661-0.321-0.156 2.11-1.246-0.748 1.09c0 0 1.149-0.26 1.226-0.26 0.077 0 0-0.597 0-0.597l1.098 0.078 0.775 0.649 0.695-0.104 2.591 1.351 1.977 2.569 0.908-1.09-2.439-2.544L24.663 72.479z" fill="#f84e45" data-fill-palette-color="accent"></path></svg></g></svg></g></svg></g><defs></defs></svg><rect width="395.52" height="83.58554722524559" fill="none" stroke="none" visibility="hidden"></rect></g></svg></g></svg>